<svg width="100" height="68" fill="none" xmlns="http://www.w3.org/2000/svg"><path d="M15.949 32H0c0 18.562 16.113 36 35.99 36 19.876 0 35.99-17.438 35.99-36H56.028c0 10.828-8.97 20.046-20.039 20.046-11.068 0-20.04-9.218-20.04-20.046z" fill="url(#paint0_linear)"/><path d="M35.928 67.853c19.952 0 36.124-17.112 36.124-35.74h-16.01c0 10.866-9.005 19.923-20.114 19.923" fill="url(#paint1_linear)"/><path d="M84.051 36H100c0-18.563-16.113-36-35.99-36-19.876 0-35.99 17.438-35.99 36h15.952c0-10.828 8.97-20.046 20.039-20.046 11.068 0 20.04 9.218 20.04 20.046z" fill="url(#paint2_linear)"/><path d="M64.144.26C44.193.26 28.02 17.37 28.02 36h16.011c0-10.867 9.004-19.924 20.113-19.924" fill="url(#paint3_linear)"/><defs><linearGradient id="paint0_linear" x1="-4.375" y1="49.377" x2="92.017" y2="50.407" gradientUnits="userSpaceOnUse"><stop stop-color="#29D3DA"/><stop offset=".519" stop-color="#07F"/><stop offset=".999" stop-color="#064093"/><stop offset="1" stop-color="#084698"/></linearGradient><linearGradient id="paint1_linear" x1="76.162" y1="49.536" x2="23.976" y2="50.312" gradientUnits="userSpaceOnUse"><stop stop-color="#29D3DA"/><stop offset=".519" stop-color="#07F"/><stop offset=".999" stop-color="#064093"/><stop offset="1" stop-color="#084698"/></linearGradient><linearGradient id="paint2_linear" x1="104.375" y1="18.623" x2="7.983" y2="17.593" gradientUnits="userSpaceOnUse"><stop stop-color="#29D3DA"/><stop offset=".519" stop-color="#07F"/><stop offset=".999" stop-color="#064093"/><stop offset="1" stop-color="#084698"/></linearGradient><linearGradient id="paint3_linear" x1="23.911" y1="18.576" x2="76.097" y2="17.8" gradientUnits="userSpaceOnUse"><stop stop-color="#29D3DA"/><stop offset=".519" stop-color="#07F"/><stop offset=".999" stop-color="#064093"/><stop offset="1" stop-color="#084698"/></linearGradient></defs></svg>